<svg width="142" height="106" viewBox="0 0 142 106" fill="none" xmlns="http://www.w3.org/2000/svg">
<g filter="url(#filter0_d_52_19217)">
<rect width="89.321" height="89.321" rx="6" transform="matrix(0.8017 -0.597726 0.8017 0.597726 0 52.8882)" fill="#171717"/>
<rect width="89.321" height="89.321" rx="6" transform="matrix(0.8017 -0.597726 0.8017 0.597726 0 52.8882)" stroke="#FAFAFA" stroke-width="1.6"/>
</g>
<path d="M74.5652 46.912C74.6502 47.099 74.6672 47.303 74.5992 47.49C74.5312 47.677 74.3952 47.813 74.2082 47.915C74.0382 48 73.8342 48 73.6642 47.932C73.4772 47.864 73.3242 47.745 73.2392 47.558L72.7972 46.64L72.2362 45.484C72.1172 45.246 72.0152 44.991 71.9132 44.736C71.8622 44.617 71.5562 44.532 71.4202 44.532H71.4032C70.7062 44.549 69.2272 44.515 68.5642 44.464C68.4282 44.447 68.2752 44.532 68.2242 44.668L68.0032 45.229C67.6122 46.181 67.3402 46.946 67.1702 47.507C67.1022 47.694 66.9662 47.847 66.7962 47.932C66.6092 48.017 66.4052 48.034 66.2352 47.966C66.0482 47.915 65.8952 47.779 65.8102 47.609C65.7082 47.422 65.6912 47.218 65.7592 47.031C65.9462 46.47 66.2352 45.671 66.6262 44.685C67.0682 43.563 67.3742 42.815 67.5102 42.424L68.1732 40.469L69.0912 37.868C69.1252 37.783 69.2952 37.358 69.4992 37.256C69.6692 37.171 70.5532 37.188 70.7402 37.273C70.9272 37.341 71.0632 37.494 71.1482 37.664C71.5392 38.65 71.8792 39.653 72.1512 40.673C72.5252 41.982 72.7802 42.815 72.9162 43.206C73.0182 43.444 73.1202 43.699 73.2052 43.954C73.3072 44.226 73.4092 44.515 73.4772 44.651C73.6132 44.974 73.8172 45.399 74.0552 45.909L74.5652 46.912ZM68.9212 42.815V42.798C68.9212 42.832 68.9212 42.866 68.9382 42.883C69.0062 42.968 69.1082 43.019 69.2102 43.019C69.7032 43.036 70.6212 43.053 71.0972 43.07C71.1482 43.07 71.1992 43.036 71.2332 43.002C71.2672 42.968 71.2672 42.9 71.2502 42.866L70.7402 41.081C70.6552 40.826 70.5532 40.486 70.4512 40.129C70.4172 40.044 70.4002 39.959 70.3832 39.857C70.3832 39.755 70.3492 39.653 70.3152 39.551V39.534C70.2642 39.381 70.2132 39.296 70.1792 39.296C70.1282 39.279 70.0602 39.398 70.0262 39.466C70.0262 39.483 69.7882 40.299 69.6522 40.69L68.9212 42.815ZM77.9027 37.375C78.1917 37.528 78.2937 37.817 78.3277 38.157C78.3617 38.599 78.2767 39.109 78.2937 39.449C78.3107 40.214 78.3107 40.996 78.3107 41.761C78.2767 42.662 78.2257 44.124 78.2087 45.025C78.1917 45.501 78.2427 45.994 78.2597 46.453C78.2597 46.878 78.4297 47.388 78.1407 47.745C77.8517 48.068 77.3587 48.102 77.0187 47.813C76.8827 47.694 76.7977 47.507 76.7807 47.32C76.7467 46.334 76.6787 45.161 76.7637 44.175C76.8997 42.747 76.9507 41.302 76.8827 39.874C76.8317 39.058 76.7297 38.344 76.7297 38.055C76.7127 37.868 76.7807 37.681 76.9167 37.545C77.1887 37.307 77.5627 37.239 77.9027 37.375ZM42.4515 57.171C42.5025 57.154 42.5535 57.154 42.6215 57.154C42.8255 57.171 43.1655 57.188 43.6415 57.205C44.1345 57.222 44.5425 57.239 44.8655 57.273C45.2055 57.29 45.5795 57.358 46.0215 57.426C46.4465 57.511 46.8545 57.647 47.2625 57.817C47.6535 58.004 48.0275 58.225 48.3675 58.497C48.9115 58.973 49.3025 59.602 49.5065 60.316C49.7275 61.081 49.8295 61.897 49.7955 62.696C49.7615 63.512 49.6085 64.311 49.3195 65.076C49.0985 65.756 48.6905 66.368 48.1465 66.844C47.4155 67.439 46.4975 67.745 45.5795 67.915C44.8825 68.068 44.1685 68.119 43.4545 68.051C43.0805 68.017 41.6525 67.966 41.6865 67.388C41.6865 67.082 41.6355 58.446 41.6185 57.902C41.6015 57.715 41.6695 57.528 41.8055 57.392C41.9245 57.239 42.1115 57.154 42.2985 57.154C42.3495 57.154 42.4005 57.154 42.4515 57.171ZM43.0975 58.633C43.1145 58.939 43.1655 66.555 43.1655 66.555C43.6415 66.708 45.0865 66.555 45.2055 66.538C46.0895 66.385 46.7695 66.13 47.2285 65.739C47.5855 65.399 47.8575 64.974 48.0105 64.498C48.2315 63.903 48.3505 63.274 48.3675 62.645C48.4015 62.016 48.3335 61.404 48.1635 60.809C48.0445 60.35 47.7895 59.942 47.4495 59.619C47.2455 59.466 47.0415 59.313 46.8035 59.211C46.5655 59.092 46.3785 59.007 46.2085 58.939C45.9705 58.871 45.7155 58.803 45.4605 58.786C45.1375 58.735 44.8995 58.718 44.7635 58.701C44.6275 58.701 44.3385 58.684 43.9135 58.667C43.4885 58.65 43.2165 58.633 43.0975 58.633ZM52.8221 63.92C52.8561 65.484 52.8391 66.606 52.8051 67.269C52.8051 67.456 52.7201 67.626 52.5841 67.745C52.4481 67.864 52.2951 67.915 52.1251 67.915C52.1081 67.915 52.0911 67.915 52.0741 67.915C51.8871 67.915 51.7001 67.83 51.5811 67.694C51.4621 67.541 51.3941 67.371 51.4111 67.184C51.4451 66.572 51.4621 65.501 51.4281 63.954C51.3941 62.458 51.4111 61.336 51.4451 60.605C51.4451 60.418 51.5301 60.231 51.6661 60.112C51.8191 59.993 52.0061 59.925 52.1761 59.942C52.3631 59.959 52.5501 60.044 52.6691 60.18C52.7881 60.316 52.8561 60.503 52.8391 60.69C52.8051 61.387 52.7881 62.475 52.8221 63.92ZM52.0231 58.854C51.8361 58.854 51.6661 58.803 51.5471 58.667C51.2581 58.378 51.3941 57.885 51.4111 57.528C51.4111 57.341 51.4961 57.171 51.6321 57.035C51.7681 56.916 51.9381 56.848 52.1251 56.848C52.3121 56.848 52.4991 56.933 52.6181 57.069C52.7371 57.205 52.8051 57.375 52.8051 57.562C52.8051 57.902 52.7881 57.868 52.7711 58.191C52.7541 58.378 52.6691 58.565 52.5331 58.684C52.3971 58.803 52.2101 58.871 52.0231 58.854ZM61.9394 67.014C61.9734 67.184 61.9394 67.354 61.8374 67.49C61.7354 67.626 61.5994 67.711 61.4464 67.728C61.4294 67.745 61.3954 67.745 61.3784 67.762L61.2254 67.796C61.0554 67.847 60.8684 67.847 60.6814 67.813C60.1884 67.711 59.8484 67.354 59.6444 66.742C59.2194 67.218 58.6754 67.558 58.0804 67.762C57.7404 67.864 57.4004 67.915 57.0604 67.915C56.7374 67.915 56.4314 67.864 56.1254 67.779C55.7004 67.643 55.3094 67.405 54.9864 67.065C54.6974 66.742 54.5104 66.334 54.4424 65.892C54.3914 65.382 54.5104 64.889 54.7654 64.464C54.8334 64.345 54.9184 64.243 54.9864 64.141C55.0884 64.022 55.1904 63.937 55.3094 63.869C55.4114 63.801 55.4964 63.733 55.5814 63.682C55.6834 63.614 55.8194 63.563 55.9384 63.512C56.0744 63.478 56.1764 63.444 56.2274 63.41C56.3634 63.376 56.4824 63.342 56.6184 63.325C56.8224 63.291 56.8904 63.274 56.9074 63.274C57.0264 63.24 57.1454 63.223 57.2644 63.223L57.5364 63.172C57.9444 63.121 58.3524 63.036 58.7264 62.883C58.9814 62.781 59.1854 62.577 59.2704 62.305C59.3554 62.05 59.3214 61.778 59.1854 61.54C59.1004 61.37 58.9644 61.251 58.8114 61.166C58.6584 61.115 58.3184 61.064 57.5534 61.132C56.9754 61.183 56.2104 61.336 56.0574 61.999C56.0404 62.118 56.0234 62.22 55.9894 62.339C55.8874 62.662 55.5474 62.866 55.2244 62.798C55.0544 62.747 54.9184 62.662 54.8164 62.509C54.7144 62.373 54.6804 62.203 54.7314 62.033C54.8674 61.098 55.5304 60.316 56.4484 60.044C56.7714 59.942 57.0944 59.891 57.4344 59.891C58.2334 59.806 58.8284 59.84 59.2364 59.976C59.6954 60.146 60.0694 60.469 60.2904 60.877C60.5114 61.217 60.6474 61.778 60.6984 62.577C60.6984 62.645 60.6984 63.376 60.7154 64.549C60.7154 65.093 60.7494 65.654 60.8514 66.198C60.8684 66.317 60.9024 66.436 60.9534 66.538C60.9704 66.538 60.9874 66.538 61.0044 66.538C61.0724 66.504 61.1404 66.504 61.2084 66.504C61.3614 66.47 61.5484 66.504 61.6844 66.606C61.8204 66.691 61.9224 66.844 61.9394 67.014ZM59.4234 64.685C59.4234 64.617 59.4234 64.549 59.4234 64.481C59.4234 64.362 59.3554 64.26 59.2704 64.192C59.1684 64.141 59.0664 64.124 58.9474 64.158C58.5564 64.277 58.1484 64.379 57.7234 64.43C57.3154 64.498 56.9924 64.549 56.8054 64.583C56.6184 64.617 56.4314 64.685 56.2614 64.77C56.1084 64.838 55.9894 64.94 55.9044 65.076C55.7174 65.416 55.8534 65.705 55.9894 65.977C56.1084 66.249 56.1764 66.453 56.5504 66.572C56.9924 66.691 57.4684 66.657 57.8934 66.453C58.4034 66.249 58.7944 65.824 59.1174 65.382C59.2194 65.246 59.2874 65.11 59.3554 64.957C59.3894 64.872 59.4064 64.787 59.4234 64.685ZM69.3202 60.299C69.6772 62.543 69.5072 64.957 69.3372 67.218C69.2692 68.119 69.1672 68.867 69.0312 69.173C68.7932 69.7 68.4362 70.159 67.9602 70.482C67.7562 70.669 67.5352 70.822 67.2802 70.924C67.0252 71.043 66.7532 71.094 66.4812 71.094C66.2092 71.094 65.9542 71.06 65.6992 70.958H65.6652C65.3762 70.873 65.0872 70.754 64.8492 70.584C64.5772 70.431 64.3222 70.244 64.0842 70.04C63.9992 69.955 63.8802 69.853 63.7612 69.717C63.5912 69.547 63.4382 69.377 63.3192 69.173C62.9622 68.68 63.0132 68.136 63.6422 67.966C63.8122 67.915 63.9652 67.949 64.1182 68.034L64.1522 68.051L64.2882 68.17C64.3392 68.204 64.3732 68.238 64.4072 68.289L64.5092 68.425L64.7642 68.748C64.8322 68.799 65.0192 68.935 65.4952 69.275C65.6652 69.411 65.8692 69.53 66.0732 69.615C66.4132 69.666 66.7702 69.598 67.0592 69.394C67.2972 69.122 67.4672 68.799 67.5862 68.442C67.7222 68.102 68.0622 67.201 67.4842 67.371C67.0422 67.507 66.6682 67.813 66.2092 67.864C65.6822 67.949 65.1552 67.847 64.6962 67.609C63.9482 67.218 63.4042 66.504 63.0812 65.501C62.9452 65.127 62.8602 64.736 62.8432 64.328C62.8262 63.818 62.8432 63.291 62.9452 62.764C63.0302 62.305 63.2002 61.846 63.4552 61.438C63.7102 61.047 64.0332 60.707 64.4412 60.452C65.5632 59.806 66.9572 59.908 67.9772 60.707C67.9772 60.639 67.9602 60.588 67.9602 60.537C67.9092 60.35 67.9602 60.163 68.0622 60.01C68.1642 59.857 68.3342 59.755 68.5212 59.721C68.6912 59.687 68.8782 59.738 69.0312 59.84C69.1842 59.942 69.2862 60.112 69.3202 60.299ZM67.7392 65.144C68.0112 64.396 67.8582 63.495 67.6202 62.713C67.3652 61.931 66.9232 61.506 66.2092 61.438C66.1412 61.438 66.0562 61.438 65.9712 61.438C65.6822 61.421 65.4102 61.489 65.1552 61.642C64.7302 61.897 64.4582 62.373 64.3052 63.053C64.1522 63.716 64.1862 64.413 64.4072 65.076C64.6112 65.722 64.9342 66.164 65.3252 66.368C65.7672 66.589 66.2942 66.504 66.9232 66.13C67.2972 65.909 67.5862 65.569 67.7392 65.144ZM75.5474 60.741C75.5814 60.928 75.5474 61.115 75.4284 61.268C75.3264 61.421 75.1564 61.523 74.9864 61.557C74.5444 61.642 73.8644 61.761 73.6604 61.948C73.4394 62.135 73.2864 62.39 73.2014 62.662C73.1334 62.866 73.0824 63.087 73.0484 63.308C73.0314 63.648 73.0144 63.971 73.0314 64.311C73.0314 64.634 73.0314 64.94 73.0314 65.263C73.0484 65.841 73.0144 66.419 72.9294 66.997C72.9124 67.116 72.8954 67.201 72.8954 67.269L72.8784 67.303C72.8614 67.371 72.8444 67.422 72.8104 67.473C72.7934 67.541 72.7594 67.592 72.7254 67.643C72.5894 67.813 72.3854 67.898 72.1644 67.898C71.9264 67.915 71.7054 67.796 71.5694 67.592C71.5354 67.524 71.5014 67.456 71.4844 67.371C71.4844 67.354 71.4674 67.303 71.4504 67.252C71.4504 67.167 71.4334 67.099 71.4334 67.014C71.4334 66.912 71.4334 66.742 71.4334 66.521V65.722C71.4334 65.416 71.4164 64.889 71.3994 64.141C71.3824 63.376 71.3824 62.713 71.3994 62.152C71.3994 61.608 71.4334 61.064 71.4674 60.537C71.4844 60.35 71.5694 60.18 71.7054 60.061C71.8584 59.942 72.0284 59.891 72.2154 59.891C72.4024 59.908 72.5724 59.993 72.6914 60.146C72.8104 60.282 72.8784 60.469 72.8614 60.656C72.8614 60.758 72.8444 60.86 72.8444 60.945C73.1674 60.605 73.6094 60.367 74.0854 60.282C74.4424 60.197 74.9524 60.061 75.2584 60.299C75.4114 60.401 75.5134 60.571 75.5474 60.741ZM83.9863 67.014C84.0203 67.184 83.9863 67.354 83.8843 67.49C83.7823 67.626 83.6463 67.711 83.4933 67.728C83.4763 67.745 83.4423 67.745 83.4253 67.762L83.2723 67.796C83.1023 67.847 82.9153 67.847 82.7283 67.813C82.2353 67.711 81.8953 67.354 81.6913 66.742C81.2663 67.218 80.7223 67.558 80.1273 67.762C79.7873 67.864 79.4473 67.915 79.1073 67.915C78.7843 67.915 78.4783 67.864 78.1723 67.779C77.7473 67.643 77.3563 67.405 77.0333 67.065C76.7443 66.742 76.5573 66.334 76.4893 65.892C76.4383 65.382 76.5573 64.889 76.8123 64.464C76.8803 64.345 76.9653 64.243 77.0333 64.141C77.1353 64.022 77.2373 63.937 77.3563 63.869C77.4583 63.801 77.5433 63.733 77.6283 63.682C77.7303 63.614 77.8663 63.563 77.9853 63.512C78.1213 63.478 78.2233 63.444 78.2743 63.41C78.4103 63.376 78.5293 63.342 78.6653 63.325C78.8693 63.291 78.9373 63.274 78.9543 63.274C79.0733 63.24 79.1923 63.223 79.3113 63.223L79.5833 63.172C79.9913 63.121 80.3993 63.036 80.7733 62.883C81.0283 62.781 81.2323 62.577 81.3173 62.305C81.4023 62.05 81.3683 61.778 81.2323 61.54C81.1473 61.37 81.0113 61.251 80.8583 61.166C80.7053 61.115 80.3653 61.064 79.6003 61.132C79.0223 61.183 78.2573 61.336 78.1043 61.999C78.0873 62.118 78.0703 62.22 78.0363 62.339C77.9343 62.662 77.5943 62.866 77.2713 62.798C77.1013 62.747 76.9653 62.662 76.8633 62.509C76.7613 62.373 76.7273 62.203 76.7783 62.033C76.9143 61.098 77.5773 60.316 78.4953 60.044C78.8183 59.942 79.1413 59.891 79.4813 59.891C80.2803 59.806 80.8753 59.84 81.2833 59.976C81.7423 60.146 82.1163 60.469 82.3373 60.877C82.5583 61.217 82.6943 61.778 82.7453 62.577C82.7453 62.645 82.7453 63.376 82.7623 64.549C82.7623 65.093 82.7963 65.654 82.8983 66.198C82.9153 66.317 82.9493 66.436 83.0003 66.538C83.0173 66.538 83.0343 66.538 83.0513 66.538C83.1193 66.504 83.1873 66.504 83.2553 66.504C83.4083 66.47 83.5953 66.504 83.7313 66.606C83.8673 66.691 83.9693 66.844 83.9863 67.014ZM81.4703 64.685C81.4703 64.617 81.4703 64.549 81.4703 64.481C81.4703 64.362 81.4023 64.26 81.3173 64.192C81.2153 64.141 81.1133 64.124 80.9943 64.158C80.6033 64.277 80.1953 64.379 79.7703 64.43C79.3623 64.498 79.0393 64.549 78.8523 64.583C78.6653 64.617 78.4783 64.685 78.3083 64.77C78.1553 64.838 78.0363 64.94 77.9513 65.076C77.7643 65.416 77.9003 65.705 78.0363 65.977C78.1553 66.249 78.2233 66.453 78.5973 66.572C79.0393 66.691 79.5153 66.657 79.9403 66.453C80.4503 66.249 80.8413 65.824 81.1643 65.382C81.2663 65.246 81.3343 65.11 81.4023 64.957C81.4363 64.872 81.4533 64.787 81.4703 64.685ZM95.0873 61.914C95.2403 62.577 95.3083 63.24 95.3083 63.92C95.3083 64.413 95.2743 64.906 95.2233 65.739C95.1893 66.538 95.1553 67.048 95.1553 67.235C95.1553 67.609 94.8493 67.932 94.4583 67.932C94.0673 67.932 93.7613 67.609 93.7613 67.235C93.7613 67.014 93.7783 66.487 93.8293 65.654C93.8803 64.821 93.8973 64.362 93.8973 63.937C93.9143 63.359 93.8463 62.798 93.7273 62.254C93.6253 61.829 93.4893 61.557 93.3023 61.421C93.0813 61.251 92.7753 61.234 92.3843 61.37C91.6873 61.608 91.2623 62.118 91.1093 62.9L91.0413 63.24C91.0753 63.529 91.0753 63.903 91.0923 64.362C91.1093 64.821 91.1093 65.076 91.1093 65.144V66.81C91.1093 66.827 91.1093 66.861 91.1093 66.878L91.1263 66.912V67.133L91.1093 67.167C91.1093 67.269 91.0753 67.354 91.0243 67.422C90.9393 67.626 90.7523 67.762 90.5313 67.796C90.2763 67.847 90.0043 67.745 89.8513 67.524C89.7833 67.439 89.7323 67.337 89.7153 67.235C89.7153 67.201 89.7153 67.167 89.7153 67.15C89.6813 66.827 89.6643 66.521 89.6813 66.215C89.6983 66.011 89.6983 65.807 89.6983 65.62C89.6133 64.821 89.6133 64.005 89.6473 63.206C89.6303 63.036 89.6133 62.866 89.5793 62.696C89.4603 61.897 89.2053 61.455 88.8313 61.37C88.6613 61.353 88.4743 61.353 88.3043 61.37C88.2363 61.387 88.1853 61.404 88.1173 61.438C88.0493 61.489 87.9643 61.54 87.9133 61.574C87.8453 61.625 87.7943 61.676 87.7433 61.744C87.6923 61.812 87.6243 61.88 87.5733 61.965C87.5223 62.033 87.4713 62.135 87.4033 62.254C87.3353 62.373 87.2673 62.475 87.2333 62.56L87.0463 62.9C87.0293 62.934 87.0293 62.951 87.0123 63.002C86.9783 63.07 86.9613 63.138 86.9273 63.172C86.7573 63.546 86.6893 63.971 86.7063 64.379C86.7063 64.872 86.7063 65.229 86.7063 65.467C86.7063 65.705 86.7233 65.841 86.7233 66.215C86.7403 66.589 86.7743 66.946 86.7913 67.252C86.8083 67.439 86.7573 67.626 86.6213 67.762C86.5023 67.915 86.3323 68 86.1453 68.017C86.1283 68.017 86.1113 68.017 86.0943 68.017C85.9243 68.017 85.7713 67.949 85.6353 67.847C85.4993 67.728 85.4143 67.558 85.3973 67.371C85.3633 66.895 85.3293 66.419 85.3293 65.96C85.3123 65.467 85.3123 65.076 85.3123 64.379C85.2953 63.699 85.2953 63.24 85.2953 62.985C85.2953 62.883 85.2953 62.645 85.2783 62.271C85.2783 61.914 85.2613 61.625 85.2613 61.421V61.404C85.2613 61.37 85.2443 61.319 85.2443 61.285C85.2443 61.234 85.2443 61.2 85.2273 61.166V61.132C85.2103 61.03 85.2103 60.911 85.2273 60.792C85.2613 60.537 85.4653 60.299 85.7203 60.231C85.9923 60.146 86.2643 60.231 86.4513 60.418C86.5703 60.537 86.6553 60.673 86.6893 60.843C87.2673 60.129 88.2023 59.806 89.1033 60.027C89.6813 60.129 90.1913 60.503 90.4803 61.013C90.8713 60.571 91.3643 60.231 91.9253 60.061C92.7753 59.755 93.5063 59.84 94.1183 60.282C94.5773 60.622 94.9003 61.166 95.0873 61.914ZM101.961 63.954C102.624 64.481 102.862 65.195 102.675 66.096C102.539 66.725 102.165 67.286 101.604 67.626C101.111 67.932 100.55 68.085 99.989 68.085C99.938 68.085 99.87 68.085 99.819 68.068C99.207 68.051 98.612 67.864 98.085 67.541C97.558 67.235 97.167 66.742 96.963 66.164C96.895 65.994 96.895 65.807 96.98 65.637C97.065 65.467 97.218 65.331 97.388 65.28C97.558 65.212 97.762 65.229 97.932 65.314C98.102 65.382 98.221 65.535 98.272 65.722C98.391 65.994 98.578 66.232 98.85 66.368C99.156 66.555 99.513 66.674 99.887 66.674C100.21 66.708 100.55 66.623 100.839 66.47C101.077 66.317 101.247 66.062 101.315 65.79C101.4 65.348 101.23 65.161 101.094 65.059C100.941 64.923 100.584 64.719 99.734 64.481C98.765 64.226 98.17 64.005 97.881 63.852C97.116 63.427 96.759 62.832 96.81 62.05C96.844 61.472 97.133 60.945 97.609 60.622C98.068 60.282 98.612 60.061 99.173 59.976C99.734 59.891 100.312 59.925 100.856 60.061C101.383 60.18 101.842 60.503 102.114 60.962C102.25 61.2 102.335 61.438 102.386 61.693C102.42 61.88 102.505 62.152 102.454 62.339C102.386 62.645 101.927 62.781 101.638 62.747C101.4 62.713 101.196 62.56 101.077 62.356C100.975 62.135 101.06 61.863 100.907 61.659C100.805 61.506 100.652 61.404 100.482 61.37C100.125 61.285 99.751 61.285 99.394 61.37C99.071 61.387 98.765 61.506 98.51 61.693C98.34 61.795 98.238 61.965 98.204 62.152C98.187 62.271 98.221 62.458 98.561 62.628C98.697 62.713 99.088 62.866 100.108 63.155C100.992 63.41 101.587 63.665 101.961 63.954Z" fill="#FAFAFA"/>
<defs>
<filter id="filter0_d_52_19217" x="1.91071" y="0.92334" width="142.396" height="106.93" filterUnits="userSpaceOnUse" color-interpolation-filters="sRGB">
<feFlood flood-opacity="0" result="BackgroundImageFix"/>
<feColorMatrix in="SourceAlpha" type="matrix" values="0 0 0 0 0 0 0 0 0 0 0 0 0 0 0 0 0 0 127 0" result="hardAlpha"/>
<feOffset dx="3" dy="3"/>
<feColorMatrix type="matrix" values="0 0 0 0 0.294118 0 0 0 0 0.294118 0 0 0 0 0.294118 0 0 0 1 0"/>
<feBlend mode="normal" in2="BackgroundImageFix" result="effect1_dropShadow_52_19217"/>
<feBlend mode="normal" in="SourceGraphic" in2="effect1_dropShadow_52_19217" result="shape"/>
</filter>
</defs>
</svg>
