<?xml version="1.0" standalone="no"?>
<!DOCTYPE svg PUBLIC "-//W3C//DTD SVG 20010904//EN"
 "http://www.w3.org/TR/2001/REC-SVG-20010904/DTD/svg10.dtd">
<svg version="1.0" xmlns="http://www.w3.org/2000/svg"
 width="500.000000pt" height="500.000000pt" viewBox="0 0 500.000000 500.000000"
 preserveAspectRatio="xMidYMid meet">

<g transform="translate(0.000000,500.000000) scale(0.100000,-0.100000)"
fill="#000000" stroke="none">
<path d="M4176 3117 c-14 -210 -87 -481 -180 -668 -91 -183 -235 -372 -396
-521 l-88 -81 -6 -111 c-3 -61 -5 -130 -5 -153 0 -23 -5 -44 -11 -48 -6 -4 -8
-15 -5 -25 7 -21 -27 -184 -62 -295 -62 -197 -216 -464 -368 -637 -125 -143
-372 -336 -492 -386 -24 -9 -43 -20 -43 -24 0 -18 227 -98 362 -127 282 -61
614 -41 898 55 133 45 328 145 450 232 112 79 304 266 381 372 232 317 349
673 349 1056 -1 309 -68 576 -213 847 -108 202 -268 391 -450 535 -122 96
-113 98 -121 -21z"/>
<path d="M689 3125 c-1 -3 -2 -11 -3 -17 -1 -7 -7 -12 -14 -10 -7 1 -12 -2
-12 -8 0 -5 -3 -9 -7 -8 -13 4 -63 -45 -56 -55 3 -6 2 -8 -3 -5 -11 7 -66 -47
-57 -56 4 -3 0 -6 -8 -6 -15 0 -99 -79 -99 -93 0 -4 -9 -16 -20 -27 -12 -12
-18 -25 -15 -30 3 -5 0 -12 -6 -16 -8 -5 -9 -3 -4 7 15 26 -3 4 -31 -36 -48
-71 -65 -105 -51 -105 6 0 1 -10 -13 -23 -31 -27 -59 -78 -53 -95 3 -7 -1 -11
-8 -10 -7 2 -13 -1 -14 -7 0 -5 -4 -16 -8 -22 -6 -9 -2 -13 10 -13 14 -1 12
-4 -9 -15 -17 -9 -29 -27 -33 -47 -4 -18 -12 -36 -19 -40 -6 -4 -11 -34 -11
-68 0 -33 -2 -53 -6 -43 -4 12 -8 13 -13 5 -4 -7 -5 -16 -1 -21 3 -6 0 -13 -7
-18 -8 -4 -18 -27 -24 -50 -6 -23 -7 -40 -3 -37 16 9 9 -13 -7 -27 -12 -10
-15 -26 -12 -67 3 -29 2 -48 -2 -42 -13 22 -21 -34 -27 -205 -5 -168 6 -308
27 -329 6 -6 10 -15 10 -20 0 -6 -5 -4 -11 4 -8 12 -9 10 -4 -7 3 -13 8 -33
11 -45 2 -13 7 -34 10 -48 3 -14 8 -40 11 -57 3 -18 10 -33 15 -33 6 0 7 -7 4
-15 -3 -9 -2 -23 3 -33 5 -9 17 -36 27 -59 11 -24 23 -43 27 -43 5 0 5 -5 2
-10 -4 -6 6 -36 22 -68 15 -31 26 -63 25 -71 -2 -8 1 -10 9 -5 8 5 10 3 5 -5
-5 -7 0 -21 10 -32 9 -10 14 -19 11 -19 -4 0 1 -9 11 -20 9 -12 17 -26 17 -33
0 -7 8 -11 18 -11 13 2 15 -1 7 -11 -8 -9 -7 -17 5 -28 8 -9 15 -20 15 -24 0
-5 8 -18 18 -29 11 -11 21 -25 23 -31 14 -37 96 -126 109 -118 6 4 9 3 8 -2
-5 -17 14 -53 28 -53 8 0 12 -4 9 -10 -3 -5 2 -10 11 -10 10 0 14 -3 11 -7 -9
-9 13 -34 24 -27 5 3 9 -2 9 -10 0 -17 39 -48 52 -40 4 3 8 -1 8 -8 0 -7 13
-23 28 -36 79 -67 98 -82 109 -82 6 0 13 -4 15 -8 6 -14 79 -52 99 -52 11 0
18 -4 14 -9 -3 -5 4 -12 15 -16 11 -3 20 -11 20 -16 0 -5 5 -9 10 -9 6 0 29
-12 51 -26 23 -14 39 -22 36 -16 -4 5 0 9 8 9 8 0 13 -3 11 -6 -6 -9 17 -26
39 -30 11 -1 29 -8 40 -14 25 -14 44 -19 72 -19 13 0 20 -4 17 -9 -3 -5 6 -14
20 -20 20 -9 29 -9 41 1 8 7 18 10 22 6 3 -3 0 -6 -8 -6 -8 -1 -1 -8 14 -16
16 -9 35 -13 43 -10 8 3 13 2 9 -3 -5 -9 38 -19 109 -27 17 -1 55 -8 85 -13
89 -18 361 -13 476 8 55 10 111 22 125 25 14 4 38 10 53 12 16 3 49 14 73 24
24 11 44 17 44 14 0 -2 15 3 33 13 17 9 35 18 40 19 4 1 9 3 12 4 6 3 22 7 35
9 6 0 10 8 10 17 0 8 -4 13 -9 10 -5 -4 -11 -2 -13 3 -1 5 -10 11 -18 13 -8 2
-17 5 -20 8 -10 10 -90 60 -96 60 -3 0 -17 9 -31 20 -14 11 -30 17 -36 13 -5
-3 -7 -2 -4 4 8 12 -50 56 -63 48 -6 -4 -9 -1 -8 7 2 7 -3 12 -10 10 -8 -1
-11 2 -8 7 3 5 -19 30 -49 56 -44 37 -58 45 -69 36 -10 -9 -16 -9 -21 -1 -4 6
-3 9 2 8 4 -2 8 2 8 7 0 6 -4 9 -8 7 -5 -1 -6 1 -3 6 2 4 -16 30 -41 57 -25
28 -75 88 -111 135 -36 47 -72 88 -81 92 -10 4 -11 7 -3 7 10 1 9 8 -5 28 -10
16 -29 49 -42 75 -14 26 -29 44 -34 41 -6 -3 -7 -1 -4 5 4 5 -4 32 -17 59 -13
26 -29 62 -37 80 -7 17 -16 30 -19 28 -3 -2 -6 11 -7 28 -1 17 -8 34 -14 38
-6 4 -8 12 -5 18 4 6 0 11 -11 12 -10 0 -13 3 -5 6 6 2 12 9 12 15 0 6 -6 8
-14 5 -14 -5 -36 10 -36 25 0 4 5 8 11 8 5 0 7 -5 4 -10 -3 -5 1 -10 9 -10 9
0 16 1 16 3 -2 22 -30 92 -38 92 -6 0 -14 4 -19 9 -4 5 -3 6 4 2 6 -3 14 -3
17 2 4 7 -10 91 -21 122 -6 19 -15 87 -14 119 1 12 -2 28 -6 34 -4 6 -6 41 -6
78 l1 67 -71 54 c-40 29 -79 62 -88 73 -15 17 -19 18 -35 5 -17 -13 -18 -13
-7 1 10 13 3 24 -44 68 -38 36 -58 49 -63 41 -5 -9 -9 -9 -14 -1 -4 6 -2 11 3
11 20 0 11 17 -34 64 -24 26 -54 59 -65 74 -12 15 -18 21 -14 13 5 -9 3 -12
-5 -7 -6 4 -9 11 -6 16 3 4 -4 19 -16 31 -11 13 -17 18 -13 10 5 -9 3 -12 -5
-7 -6 4 -10 13 -9 21 2 7 -16 43 -39 79 -24 37 -43 72 -43 77 0 6 -4 7 -10 4
-6 -4 -3 -16 6 -31 9 -13 14 -27 10 -31 -3 -3 -6 0 -6 8 -1 10 -5 8 -15 -5 -8
-11 -15 -15 -15 -10 0 6 5 15 12 22 8 8 8 15 0 24 -6 8 -7 19 -2 28 12 19 -18
63 -39 56 -14 -5 -14 -4 0 6 15 10 15 15 -4 57 -11 25 -24 48 -28 49 -5 2 -7
7 -4 12 3 4 -5 30 -16 57 -12 26 -23 59 -25 72 -2 13 -7 27 -12 30 -4 3 -9 15
-9 26 0 11 -10 62 -22 113 -12 51 -24 126 -28 167 -3 41 -10 75 -15 75 -5 0
-6 5 -3 10 3 6 4 10 1 10 -3 0 -7 -2 -7 -5z m-144 -185 c-3 -5 -1 -10 6 -10 7
0 10 -3 6 -6 -9 -9 -28 6 -22 17 4 5 8 9 11 9 3 0 2 -4 -1 -10z m-161 -206 c5
-14 4 -15 -9 -4 -13 11 -18 10 -30 -6 -7 -10 -9 -21 -4 -22 5 -2 6 -8 3 -14
-4 -6 -9 -6 -14 3 -10 15 17 59 35 59 7 0 16 -7 19 -16z m36 -68 c0 -16 -18
-31 -27 -22 -8 8 5 36 17 36 5 0 10 -6 10 -14z m430 -160 c0 -11 -19 -15 -25
-6 -3 5 1 10 9 10 9 0 16 -2 16 -4z m-657 -91 c-3 -9 -8 -14 -10 -11 -3 3 -2
9 2 15 9 16 15 13 8 -4z m-46 -257 c-3 -8 -6 -5 -6 6 -1 11 2 17 5 13 3 -3 4
-12 1 -19z m-20 -10 c-3 -8 -6 -5 -6 6 -1 11 2 17 5 13 3 -3 4 -12 1 -19z
m1024 -127 c-13 -8 -13 -12 -1 -28 13 -17 13 -17 -4 -1 -19 16 -15 38 7 38 8
0 7 -4 -2 -9z m309 -331 c0 -5 -4 -10 -10 -10 -5 0 -10 5 -10 10 0 6 5 10 10
10 6 0 10 -4 10 -10z m-1320 -380 c0 -5 -2 -10 -4 -10 -3 0 -8 5 -11 10 -3 6
-1 10 4 10 6 0 11 -4 11 -10z m1400 -34 c0 -3 -4 -8 -10 -11 -5 -3 -10 -1 -10
4 0 6 5 11 10 11 6 0 10 -2 10 -4z m-1393 -38 c-3 -8 -6 -5 -6 6 -1 11 2 17 5
13 3 -3 4 -12 1 -19z m1343 -29 c0 -6 -4 -7 -10 -4 -5 3 -10 11 -10 16 0 6 5
7 10 4 6 -3 10 -11 10 -16z m-1240 -120 c0 -6 -4 -7 -10 -4 -5 3 -10 11 -10
16 0 6 5 7 10 4 6 -3 10 -11 10 -16z m1374 -44 c3 -8 1 -15 -4 -15 -6 0 -10 7
-10 15 0 8 2 15 4 15 2 0 6 -7 10 -15z m-8 -62 c-10 -10 -19 5 -10 18 6 11 8
11 12 0 2 -7 1 -15 -2 -18z m-1296 -3 c0 -5 -2 -10 -4 -10 -3 0 -8 5 -11 10
-3 6 -1 10 4 10 6 0 11 -4 11 -10z m1345 -30 c3 -5 2 -10 -4 -10 -5 0 -13 5
-16 10 -3 6 -2 10 4 10 5 0 13 -4 16 -10z m-1375 -26 c0 -14 -4 -23 -9 -19
-11 6 -10 45 1 45 4 0 8 -12 8 -26z m1360 -15 c0 -6 -4 -7 -10 -4 -5 3 -10 11
-10 16 0 6 5 7 10 4 6 -3 10 -11 10 -16z m-1337 -4 c-3 -9 -8 -14 -10 -11 -3
3 -2 9 2 15 9 16 15 13 8 -4z m1387 -40 c14 -19 14 -19 -2 -6 -10 7 -18 18
-18 24 0 6 1 8 3 6 1 -2 9 -13 17 -24z m-1320 -45 c0 -5 -2 -10 -4 -10 -3 0
-8 5 -11 10 -3 6 -1 10 4 10 6 0 11 -4 11 -10z m-22 -35 c-3 -3 -9 2 -12 12
-6 14 -5 15 5 6 7 -7 10 -15 7 -18z m237 -115 c3 -5 1 -10 -4 -10 -6 0 -11 5
-11 10 0 6 2 10 4 10 3 0 8 -4 11 -10z m1205 -55 c0 -8 -4 -15 -10 -15 -5 0
-10 7 -10 15 0 8 5 15 10 15 6 0 10 -7 10 -15z m86 -52 c-3 -4 -6 -1 -6 5 0 7
-7 12 -15 12 -8 0 -15 4 -15 9 0 5 -3 18 -7 28 -4 10 6 3 21 -15 16 -18 26
-36 22 -39z m-1331 26 c-5 -41 -7 -42 -29 -11 -11 14 -15 22 -9 19 6 -4 16 0
23 8 18 21 20 19 15 -16z m64 -95 c-9 -11 -15 -12 -23 -4 -8 8 -7 13 4 20 20
12 33 1 19 -16z m41 11 c0 -8 -4 -15 -10 -15 -5 0 -10 7 -10 15 0 8 5 15 10
15 6 0 10 -7 10 -15z m48 -82 c-6 -7 -18 -12 -27 -12 -12 1 -11 2 3 6 15 4 16
7 5 14 -10 6 -8 8 8 6 17 -1 19 -4 11 -14z m67 7 c-3 -5 -11 -10 -16 -10 -6 0
-7 5 -4 10 3 6 11 10 16 10 6 0 7 -4 4 -10z m1346 -48 c-6 -2 -8 -9 -4 -15 4
-7 -1 -6 -10 2 -19 15 -23 26 -5 15 8 -5 9 -2 4 11 -6 16 -4 16 10 4 10 -8 12
-15 5 -17z m-1321 -12 c0 -5 -2 -10 -4 -10 -3 0 -8 5 -11 10 -3 6 -1 10 4 10
6 0 11 -4 11 -10z m160 -40 c0 -5 -5 -10 -11 -10 -5 0 -7 5 -4 10 3 6 8 10 11
10 2 0 4 -4 4 -10z m1273 -46 c18 -7 22 -19 9 -28 -4 -2 -17 7 -30 21 -12 13
-16 22 -9 19 6 -3 20 -9 30 -12z m-1278 -34 c-3 -5 -13 -6 -21 -3 -12 4 -13 8
-3 14 15 9 32 2 24 -11z m1153 2 c2 -7 -3 -12 -12 -12 -9 0 -16 7 -16 16 0 17
22 14 28 -4z m-673 -92 c-3 -4 -15 -6 -27 -2 -21 5 -21 6 -2 12 21 8 37 3 29
-10z m772 14 c-3 -3 -12 -4 -19 -1 -8 3 -5 6 6 6 11 1 17 -2 13 -5z m204 -17
c-10 -9 -11 -8 -5 6 3 10 9 15 12 12 3 -3 0 -11 -7 -18z m-1266 -7 c3 -6 -1
-7 -9 -4 -18 7 -21 14 -7 14 6 0 13 -4 16 -10z m135 0 c0 -5 -4 -10 -10 -10
-5 0 -10 5 -10 10 0 6 5 10 10 10 6 0 10 -4 10 -10z m1070 6 c0 -3 -4 -8 -10
-11 -5 -3 -10 -1 -10 4 0 6 5 11 10 11 6 0 10 -2 10 -4z m-1075 -56 c-3 -5
-12 -10 -18 -10 -7 0 -6 4 3 10 19 12 23 12 15 0z m910 -18 c-3 -3 -11 0 -18
7 -9 10 -8 11 6 5 10 -3 15 -9 12 -12z m-22 -9 c3 -5 -6 -9 -20 -10 -19 -1
-22 1 -12 8 17 11 26 11 32 2z"/>
</g>
</svg>
